<svg version="1.1" viewBox="0.0 0.0 447.0 234.501312335958" fill="none" stroke="none" stroke-linecap="square" stroke-miterlimit="10" xmlns:xlink="http://www.w3.org/1999/xlink" xmlns="http://www.w3.org/2000/svg"><clipPath id="p.0"><path d="m0 0l447.0 0l0 234.50131l-447.0 0l0 -234.50131z" clip-rule="nonzero"/></clipPath><g clip-path="url(#p.0)"><path fill="#4e0097" d="m0 0l447.0 0l0 234.50131l-447.0 0z" fill-rule="evenodd"/><path fill="#ffffff" d="m35.757423 27.597113l0 0c0 -5.27932 4.2797318 -9.559055 9.559055 -9.559055l106.677155 0c2.5352173 0 4.966614 1.0071125 6.7592773 2.7997837c1.7926636 1.7926693 2.7997894 4.2240524 2.7997894 6.7592716l0 0l0 0c0 5.2793217 -4.2797394 9.559057 -9.559067 9.559057l-106.677155 0c-5.2793236 0 -9.559055 -4.2797356 -9.559055 -9.559057z" fill-rule="evenodd"/><path fill="#ffffff" d="m98.61807 18.038057l0 0c5.27932 0 9.559738 4.2797356 9.560577 9.559055l0.028457642 178.92914c4.043579E-4 2.5352173 -1.0063248 4.9665985 -2.798706 6.7592773c-1.7923889 1.7926636 -4.22361 2.7997742 -6.758827 2.7997742l0 0l0 0c-5.27932 0 -9.559738 -4.279724 -9.560577 -9.5590515l-0.028457642 -178.92914c-8.392334E-4 -5.27932 4.2782135 -9.559055 9.557533 -9.559055z" fill-rule="evenodd"/><path fill="#ffffff" d="m97.707054 22.825459l0 0c4.566139 -2.6440086 10.406494 -1.0831509 13.044815 3.4862747l99.485176 172.30304c1.2669678 2.1943207 1.6109772 4.8031464 0.95635986 7.2525635c-0.6546173 2.4494324 -2.254242 4.5388184 -4.4469757 5.8085175l0 0l0 0c-4.5661316 2.6439972 -10.406494 1.0831451 -13.044815 -3.4862823l-99.485176 -172.30304c-2.638321 -4.5694237 -1.0755157 -10.417067 3.4906158 -13.061077z" fill-rule="evenodd"/><path fill="#000000" fill-opacity="0.0" d="m146.30046 85.516075l0 0c0 -31.432396 25.480988 -56.913387 56.91339 -56.913387l0 0c15.09436 0 29.570496 5.996212 40.243835 16.669544c10.673325 10.673328 16.66954 25.149475 16.66954 40.243843l0 0c0 31.432396 -25.480988 56.913383 -56.913376 56.913383l0 0c-31.432404 0 -56.91339 -25.480988 -56.91339 -56.913383z" fill-rule="evenodd"/><path stroke="#ffffff" stroke-width="24.0" stroke-linejoin="round" stroke-linecap="butt" d="m146.30046 85.516075l0 0c0 -31.432396 25.480988 -56.913387 56.91339 -56.913387l0 0c15.09436 0 29.570496 5.996212 40.243835 16.669544c10.673325 10.673328 16.66954 25.149475 16.66954 40.243843l0 0c0 31.432396 -25.480988 56.913383 -56.913376 56.913383l0 0c-31.432404 0 -56.91339 -25.480988 -56.91339 -56.913383z" fill-rule="evenodd"/><path fill="#ffffff" d="m307.93854 22.825459l0 0c-4.5661316 -2.6440086 -10.406494 -1.0831509 -13.0448 3.4862747l-99.48518 172.30304c-1.2669678 2.1943207 -1.6109772 4.8031464 -0.95635986 7.2525635c0.6546173 2.4494324 2.254242 4.5388184 4.4469757 5.8085175l0 0l0 0c4.5661316 2.6439972 10.406494 1.0831451 13.044815 -3.4862823l99.48518 -172.30304c2.6383057 -4.5694237 1.0755005 -10.417067 -3.490631 -13.061077z" fill-rule="evenodd"/><path fill="#ffffff" d="m35.730854 206.86815l0 0c0 -5.279312 4.2797356 -9.5590515 9.559055 -9.5590515l106.67716 0c2.5352173 0 4.966614 1.0071106 6.7592773 2.7997742c1.7926636 1.7926788 2.7997894 4.22406 2.7997894 6.7592773l0 0l0 0c0 5.2793274 -4.2797394 9.5590515 -9.559067 9.5590515l-106.67716 0c-5.27932 0 -9.559055 -4.279724 -9.559055 -9.5590515z" fill-rule="evenodd"/><path fill="#ffffff" d="m194.29277 27.597113l0 0c0 -5.27932 4.279724 -9.559055 9.5590515 -9.559055l197.85826 0c2.5352173 0 4.966614 1.0071125 6.7592773 2.7997837c1.7926636 1.7926693 2.7997742 4.2240524 2.7997742 6.7592716l0 0l0 0c0 5.2793217 -4.279724 9.559057 -9.5590515 9.559057l-197.85826 0c-5.2793274 0 -9.5590515 -4.2797356 -9.5590515 -9.559057z" fill-rule="evenodd"/><path fill="#ffffff" d="m302.74146 18.038057l0 0c5.2793274 0 9.559753 4.2797356 9.560577 9.559055l0.0284729 178.92914c3.9672852E-4 2.5352173 -1.0063171 4.9665985 -2.798706 6.7592773c-1.7923889 1.7926636 -4.223633 2.7997742 -6.75885 2.7997742l0 0l0 0c-5.279297 0 -9.559723 -4.279724 -9.560577 -9.5590515l-0.028442383 -178.92914c-8.544922E-4 -5.27932 4.2782288 -9.559055 9.557526 -9.559055z" fill-rule="evenodd"/></g></svg>