<svg version="1.1" viewBox="0.0 0.0 447.0 234.501312335958" fill="none" stroke="none" stroke-linecap="square" stroke-miterlimit="10" xmlns:xlink="http://www.w3.org/1999/xlink" xmlns="http://www.w3.org/2000/svg"><clipPath id="p.0"><path d="m0 0l447.0 0l0 234.50131l-447.0 0l0 -234.50131z" clip-rule="nonzero"/></clipPath><g clip-path="url(#p.0)"><path fill="#000000" fill-opacity="0.0" d="m0 0l447.0 0l0 234.50131l-447.0 0z" fill-rule="evenodd"/><path fill="#ffffff" d="m0.031496063 11.338583l0 0c0 -6.2621264 5.0764565 -11.338583 11.338583 -11.338583l126.45669 0c3.007187 0 5.8911896 1.1945972 8.017593 3.320994c2.1264038 2.1263967 3.3209991 5.01041 3.3209991 8.01759l0 0l0 0c0 6.262127 -5.076462 11.338583 -11.338593 11.338583l-126.45669 0c-6.2621264 0 -11.338583 -5.076456 -11.338583 -11.338583z" fill-rule="evenodd"/><path fill="#ffffff" d="m74.55064 0l0 0c6.262123 0 11.339264 5.0764565 11.340103 11.338583l0.028457642 212.12599c4.043579E-4 3.0071716 -1.1938095 5.8911896 -3.3199234 8.017593c-2.1261063 2.1263885 -5.009964 3.320984 -8.017143 3.320984l0 0l0 0c-6.262123 0 -11.33926 -5.0764465 -11.340103 -11.338577l-0.028453827 -212.12599c-8.392334E-4 -6.2621264 5.0749397 -11.338583 11.337063 -11.338583z" fill-rule="evenodd"/><path fill="#ffffff" d="m73.46717 5.669291l0 0c5.41848 -3.1310635 12.347702 -1.2758493 15.476852 4.1437354l117.9282 204.24796c1.5026703 2.6025696 1.9101257 5.695862 1.1327515 8.59935c-0.77737427 2.9035034 -2.6759186 5.3793793 -5.277954 6.882965l0 0l0 0c-5.4184875 3.1310577 -12.347702 1.2758484 -15.476852 -4.143738l-117.92819 -204.24796c-3.1291504 -5.419585 -1.2732773 -12.351255 4.145195 -15.482319z" fill-rule="evenodd"/><path fill="#000000" fill-opacity="0.0" d="m131.08661 80.00525l0 0c0 -37.26835 30.211975 -67.480316 67.480316 -67.480316l0 0c17.896896 0 35.060776 7.1095123 47.71579 19.764524c12.655029 12.655014 19.764526 29.818897 19.764526 47.71579l0 0c0 37.26835 -30.21196 67.480316 -67.480316 67.480316l0 0c-37.26834 0 -67.480316 -30.211967 -67.480316 -67.480316z" fill-rule="evenodd"/><path stroke="#ffffff" stroke-width="24.0" stroke-linejoin="round" stroke-linecap="butt" d="m131.08661 80.00525l0 0c0 -37.26835 30.211975 -67.480316 67.480316 -67.480316l0 0c17.896896 0 35.060776 7.1095123 47.71579 19.764524c12.655029 12.655014 19.764526 29.818897 19.764526 47.71579l0 0c0 37.26835 -30.21196 67.480316 -67.480316 67.480316l0 0c-37.26834 0 -67.480316 -30.211967 -67.480316 -67.480316z" fill-rule="evenodd"/><path fill="#ffffff" d="m322.72702 5.669291l0 0c-5.4184875 -3.1310635 -12.347717 -1.2758493 -15.476837 4.1437354l-117.92821 204.24796c-1.5026703 2.6025696 -1.910141 5.695862 -1.1327667 8.59935c0.77737427 2.9035034 2.6759186 5.3793793 5.2779694 6.882965l0 0l0 0c5.4184723 3.1310577 12.347702 1.2758484 15.476837 -4.143738l117.92821 -204.24796c3.1291504 -5.419585 1.2732849 -12.351255 -4.1452026 -15.482319z" fill-rule="evenodd"/><path fill="#ffffff" d="m0 223.87401l0 0c0 -6.2621155 5.0764565 -11.338577 11.338583 -11.338577l126.45669 0c3.007187 0 5.8911896 1.1945953 8.017593 3.3209991c2.1263885 2.1263885 3.3209991 5.0104065 3.3209991 8.017578l0 0l0 0c0 6.2621307 -5.076462 11.338593 -11.338593 11.338593l-126.45669 0c-6.2621264 0 -11.338583 -5.076462 -11.338583 -11.338593z" fill-rule="evenodd"/><path fill="#ffffff" d="m187.98425 11.338583l0 0c0 -6.2621264 5.076462 -11.338583 11.338577 -11.338583l234.5512 0c3.0071716 0 5.8911743 1.1945972 8.017578 3.320994c2.1264038 2.1263967 3.320984 5.01041 3.320984 8.01759l0 0l0 0c0 6.262127 -5.0764465 11.338583 -11.338562 11.338583l-234.5512 0c-6.2621155 0 -11.338577 -5.076456 -11.338577 -11.338583z" fill-rule="evenodd"/><path fill="#ffffff" d="m316.55063 0l0 0c6.262146 0 11.339264 5.0764565 11.340118 11.338583l0.028442383 212.12599c3.9672852E-4 3.0071716 -1.1938171 5.8911896 -3.3199158 8.017593c-2.1260986 2.1263885 -5.0099487 3.320984 -8.017151 3.320984l0 0l0 0c-6.2621155 0 -11.339264 -5.0764465 -11.340088 -11.338577l-0.0284729 -212.12599c-8.239746E-4 -6.2621264 5.074951 -11.338583 11.337067 -11.338583z" fill-rule="evenodd"/></g></svg>